<!DOCTYPE svg PUBLIC "-//W3C//DTD SVG 1.1//EN" "http://www.w3.org/Graphics/SVG/1.1/DTD/svg11.dtd">
<!-- Uploaded to: SVG Repo, www.svgrepo.com, Transformed by: SVG Repo Mixer Tools -->
<svg height="800px" width="800px" version="1.1" id="Layer_1" xmlns="http://www.w3.org/2000/svg" xmlns:xlink="http://www.w3.org/1999/xlink" viewBox="0 0 512.013 512.013" xml:space="preserve" fill="#000000">
<g id="SVGRepo_bgCarrier" stroke-width="0"/>
<g id="SVGRepo_tracerCarrier" stroke-linecap="round" stroke-linejoin="round"/>
<g id="SVGRepo_iconCarrier"> <path style="fill:#538489;" d="M396.813,201.948c0-40.414-88.499-51.2-140.8-51.2s-140.8,10.786-140.8,51.2v27.895L6.157,176.015 l249.856-116.42l249.856,116.412l-109.056,53.828V201.948z"/> <path style="fill:#38585B;" d="M380.497,265.111c-3.994-1.143-8.047-2.406-12.305-3.738c-23.151-7.236-51.959-16.247-112.179-16.247 s-89.028,9.011-112.179,16.247c-4.258,1.331-8.311,2.594-12.305,3.738l-16.316,4.668v-67.831c0-35.183,72.986-51.2,140.8-51.2 s140.8,16.017,140.8,51.2v67.831L380.497,265.111z"/> <circle style="fill:#FEDEA1;" cx="51.213" cy="291.164" r="25.6"/> <path style="fill:#FFE7E5;" d="M256.013,451.206c-70.579,0-128-77.517-128-172.8c0-0.734,0.034-1.451,0.068-2.167l0.128-9.344 l8.969-3.499l6.665-2.022c23.142-7.236,51.951-16.247,112.171-16.247c60.211,0,89.02,9.011,112.171,16.247l15.599,4.753l0.128,9.344 c0.077,1.502,0.102,2.21,0.102,2.935C384.013,373.69,326.592,451.206,256.013,451.206z"/> <path style="fill:#573A32;" d="M496.806,152.616l-230.4-102.4c-3.302-1.468-6.844-2.21-10.394-2.21s-7.091,0.734-10.394,2.21 l-230.4,102.4c-9.242,4.113-15.206,13.278-15.206,23.39c0,10.121,5.956,19.285,15.206,23.39l23.194,10.308v45.457 c-14.865,5.299-25.6,19.379-25.6,36.045c0,11.87,5.53,22.366,14.02,29.423L1.719,364.124c-3.541,6.127-1.434,13.952,4.685,17.485 c2.014,1.161,4.215,1.715,6.391,1.715c4.429,0,8.721-2.304,11.102-6.4l14.515-25.139v29.022c0,7.074,5.726,12.8,12.8,12.8 s12.8-5.726,12.8-12.8v-29.022l14.515,25.139c2.372,4.113,6.673,6.4,11.102,6.4c2.176,0,4.378-0.546,6.391-1.715 c6.127-3.541,8.226-11.366,4.685-17.485l-25.105-43.494c8.491-7.049,14.02-17.545,14.02-29.423c0-16.666-10.735-30.737-25.6-36.045 v-34.074l38.4,17.067v14.652c0,8.03,3.772,15.599,10.18,20.437c0.845,0.64,1.852,0.93,2.756,1.451 c-0.026,1.246-0.145,2.458-0.145,3.712c0,102.502,63.036,185.6,140.8,185.6s140.8-83.098,140.8-185.6 c0-1.254-0.119-2.466-0.145-3.712c0.905-0.521,1.911-0.811,2.756-1.451c6.417-4.838,10.189-12.407,10.189-20.437v-14.652 l87.194-38.75c9.25-4.113,15.206-13.278,15.206-23.398C512.013,165.894,506.056,156.721,496.806,152.616z M51.221,304.006 c-7.066,0-12.8-5.734-12.8-12.8c0-7.066,5.734-12.8,12.8-12.8s12.8,5.734,12.8,12.8C64.021,298.272,58.278,304.006,51.221,304.006z M256.013,438.406c-63.522,0-115.2-71.774-115.2-160c0-0.93,0.094-1.835,0.102-2.765c2.236-0.683,4.412-1.323,6.75-2.048 c22.323-6.98,50.099-15.659,108.348-15.659s86.025,8.687,108.348,15.659c2.338,0.734,4.514,1.365,6.75,2.048 c0.009,0.93,0.102,1.835,0.102,2.765C371.213,366.632,319.535,438.406,256.013,438.406z M384.013,252.806 c-26.103-7.458-54.929-20.48-128-20.48s-101.897,13.022-128,20.48c0-22.545,0-43.989,0-50.859c0-21.205,57.31-38.4,128-38.4 s128,17.195,128,38.4C384.013,210.583,384.013,231.302,384.013,252.806z M409.613,210.14v-8.192c0-60.911-127.949-64-153.6-64 s-153.6,3.089-153.6,64v8.201l-76.8-34.133l230.4-102.4l230.4,102.4L409.613,210.14z"/> </g>
</svg>